<?xml version="1.0" standalone="no"?>
<!DOCTYPE svg PUBLIC "-//W3C//DTD SVG 20010904//EN"
 "http://www.w3.org/TR/2001/REC-SVG-20010904/DTD/svg10.dtd">
<svg version="1.0" xmlns="http://www.w3.org/2000/svg"
 width="512.000000pt" height="512.000000pt" viewBox="0 0 512.000000 512.000000"
 preserveAspectRatio="xMidYMid meet">

<g transform="translate(0.000000,512.000000) scale(0.100000,-0.100000)"
fill="#000000" stroke="none">
<path d="M2370 4837 c-179 -54 -312 -170 -403 -352 -82 -164 -107 -298 -117
-635 -9 -282 -23 -389 -66 -520 -41 -120 -90 -204 -156 -265 l-59 -55 83 0 83
0 -53 -25 c-152 -71 -304 -198 -371 -310 -40 -66 -81 -198 -81 -261 l0 -44
1330 0 1330 0 0 43 c0 23 -7 70 -15 102 -58 222 -212 383 -468 487 -43 18 -73
34 -67 36 12 4 137 -13 190 -25 19 -5 12 6 -36 50 -94 87 -155 217 -194 413
-17 85 -24 167 -30 374 -8 271 -19 360 -62 498 -78 256 -257 439 -483 497 -91
23 -262 19 -355 -8z m574 -604 c42 -82 42 -163 0 -208 l-23 -25 22 -5 c12 -2
62 -9 112 -15 49 -6 92 -13 94 -16 9 -9 -18 -212 -39 -296 -11 -46 -46 -135
-77 -198 -49 -98 -69 -127 -138 -196 -58 -59 -99 -90 -150 -115 -67 -33 -75
-34 -185 -34 -110 0 -118 1 -185 34 -51 25 -92 56 -150 115 -69 69 -89 98
-138 196 -56 115 -90 225 -103 332 -6 54 -5 57 17 62 13 3 68 15 123 27 232
49 481 161 731 329 33 22 63 40 67 40 4 0 14 -12 22 -27z m-591 -1172 c34 -16
92 -35 130 -42 125 -23 274 17 390 106 26 20 47 33 47 30 0 -3 -14 -32 -30
-65 -17 -33 -29 -60 -28 -60 2 0 21 7 43 15 53 19 185 20 185 2 0 -23 -53 -95
-90 -123 -48 -35 -114 -68 -181 -89 l-56 -18 -97 -158 c-54 -88 -101 -159
-106 -159 -4 0 -52 71 -105 159 l-98 158 -56 18 c-84 26 -163 71 -211 120 -24
25 -42 47 -39 49 9 9 175 -26 206 -44 l31 -18 -13 31 c-7 18 -29 67 -49 111
-20 43 -36 80 -36 82 0 3 23 -14 51 -36 27 -22 78 -53 112 -69z"/>
<path d="M909 2307 c-42 -28 -79 -82 -79 -116 0 -35 328 -1594 347 -1649 11
-31 27 -51 56 -70 l41 -27 1274 -3 c1274 -2 1275 -2 1318 19 60 28 79 65 108
209 14 69 91 433 171 809 80 376 145 696 145 711 0 35 -36 88 -79 117 l-34 23
-1617 0 -1617 0 -34 -23z m1709 -867 c49 -46 39 -113 -21 -145 l-37 -20 -37
20 c-21 11 -42 32 -47 46 -20 59 22 119 84 119 23 0 44 -8 58 -20z"/>
<path d="M1120 380 c-29 -29 -30 -72 -3 -102 15 -17 97 -18 1443 -18 1347 0
1428 1 1442 17 8 10 18 26 21 36 8 22 -16 72 -38 81 -9 3 -653 6 -1431 6
-1401 0 -1414 0 -1434 -20z"/>
</g>
</svg>
